<mxfile host="65bd71144e" modified="2021-02-04T02:39:51.523Z" agent="5.0 (Macintosh; Intel Mac OS X 11_0_0) AppleWebKit/537.36 (KHTML, like Gecko) Code/1.52.1 Chrome/83.0.4103.122 Electron/9.3.5 Safari/537.36" etag="iaAUiIS2v-ZS1w1f9Ide" version="13.10.0" type="embed">
    <diagram id="M3PB_eFAeUgF0cotv8C4" name="系统架构图">
        <mxGraphModel dx="23253" dy="981" grid="0" gridSize="10" guides="1" tooltips="1" connect="1" arrows="1" fold="1" page="1" pageScale="1" pageWidth="1654" pageHeight="1169" math="0" shadow="0">
            <root>
                <mxCell id="F8k-hwd1LeyVgPTJ7h4S-0"/>
                <mxCell id="F8k-hwd1LeyVgPTJ7h4S-1" parent="F8k-hwd1LeyVgPTJ7h4S-0"/>
                <mxCell id="P_FGHdYgrc0bCHyAvN4C-0" value="" style="endArrow=none;dashed=1;html=1;" parent="F8k-hwd1LeyVgPTJ7h4S-1" edge="1">
                    <mxGeometry width="50" height="50" relative="1" as="geometry">
                        <mxPoint x="-21139.98999999999" y="669.9999999999998" as="sourcePoint"/>
                        <mxPoint x="-20480" y="669.9999999999998" as="targetPoint"/>
                    </mxGeometry>
                </mxCell>
                <mxCell id="P_FGHdYgrc0bCHyAvN4C-1" value="" style="endArrow=none;dashed=1;html=1;" parent="F8k-hwd1LeyVgPTJ7h4S-1" edge="1">
                    <mxGeometry width="50" height="50" relative="1" as="geometry">
                        <mxPoint x="-21139.98999999999" y="409" as="sourcePoint"/>
                        <mxPoint x="-20480" y="409" as="targetPoint"/>
                    </mxGeometry>
                </mxCell>
                <mxCell id="P_FGHdYgrc0bCHyAvN4C-2" value="Redis" style="shape=cylinder;whiteSpace=wrap;html=1;boundedLbl=1;backgroundOutline=1;fillColor=#66B2FF;fontSize=17;fontColor=#000000;" parent="F8k-hwd1LeyVgPTJ7h4S-1" vertex="1">
                    <mxGeometry x="-20771" y="740" width="100" height="90" as="geometry"/>
                </mxCell>
                <mxCell id="P_FGHdYgrc0bCHyAvN4C-3" value="MongoDB" style="shape=cylinder;whiteSpace=wrap;html=1;boundedLbl=1;backgroundOutline=1;fillColor=#66B2FF;fontSize=17;fontColor=#000000;" parent="F8k-hwd1LeyVgPTJ7h4S-1" vertex="1">
                    <mxGeometry x="-20922" y="740" width="100" height="90" as="geometry"/>
                </mxCell>
                <mxCell id="P_FGHdYgrc0bCHyAvN4C-4" value="数据存储层" style="text;html=1;align=center;verticalAlign=middle;resizable=0;points=[];autosize=1;fontSize=17;fontStyle=1" parent="F8k-hwd1LeyVgPTJ7h4S-1" vertex="1">
                    <mxGeometry x="-21120.489999999998" y="773" width="95" height="24" as="geometry"/>
                </mxCell>
                <mxCell id="P_FGHdYgrc0bCHyAvN4C-5" value="" style="endArrow=none;dashed=1;html=1;" parent="F8k-hwd1LeyVgPTJ7h4S-1" edge="1">
                    <mxGeometry width="50" height="50" relative="1" as="geometry">
                        <mxPoint x="-21139.98999999999" y="290" as="sourcePoint"/>
                        <mxPoint x="-20480" y="290" as="targetPoint"/>
                    </mxGeometry>
                </mxCell>
                <mxCell id="P_FGHdYgrc0bCHyAvN4C-6" value="网关层" style="text;html=1;align=center;verticalAlign=middle;resizable=0;points=[];autosize=1;fontSize=17;fontStyle=1" parent="F8k-hwd1LeyVgPTJ7h4S-1" vertex="1">
                    <mxGeometry x="-21103.489999999998" y="338" width="61" height="24" as="geometry"/>
                </mxCell>
                <mxCell id="P_FGHdYgrc0bCHyAvN4C-7" value="Nginx" style="rounded=1;whiteSpace=wrap;html=1;fillColor=#e1d5e7;strokeColor=#9673a6;fontSize=20;fontColor=#000000;" parent="F8k-hwd1LeyVgPTJ7h4S-1" vertex="1">
                    <mxGeometry x="-20921.989999999998" y="320" width="401.99" height="60" as="geometry"/>
                </mxCell>
                <mxCell id="P_FGHdYgrc0bCHyAvN4C-8" value="服务层" style="text;html=1;align=center;verticalAlign=middle;resizable=0;points=[];autosize=1;fontSize=17;fontStyle=1" parent="F8k-hwd1LeyVgPTJ7h4S-1" vertex="1">
                    <mxGeometry x="-21103.489999999998" y="528" width="61" height="24" as="geometry"/>
                </mxCell>
                <mxCell id="P_FGHdYgrc0bCHyAvN4C-9" value="管理系统" style="rounded=1;whiteSpace=wrap;html=1;fillColor=#d5e8d4;strokeColor=#82b366;fontSize=19;fontColor=#000000;" parent="F8k-hwd1LeyVgPTJ7h4S-1" vertex="1">
                    <mxGeometry x="-20921.989999999998" y="450" width="401.99" height="180" as="geometry"/>
                </mxCell>
                <mxCell id="P_FGHdYgrc0bCHyAvN4C-10" value="" style="endArrow=none;dashed=1;html=1;" parent="F8k-hwd1LeyVgPTJ7h4S-1" edge="1">
                    <mxGeometry width="50" height="50" relative="1" as="geometry">
                        <mxPoint x="-21140" y="889.9999999999998" as="sourcePoint"/>
                        <mxPoint x="-20480" y="889.9999999999998" as="targetPoint"/>
                    </mxGeometry>
                </mxCell>
                <mxCell id="P_FGHdYgrc0bCHyAvN4C-11" value="基础资源层" style="text;html=1;align=center;verticalAlign=middle;resizable=0;points=[];autosize=1;fontSize=17;fontStyle=1" parent="F8k-hwd1LeyVgPTJ7h4S-1" vertex="1">
                    <mxGeometry x="-21120.489999999998" y="983" width="95" height="24" as="geometry"/>
                </mxCell>
                <mxCell id="P_FGHdYgrc0bCHyAvN4C-12" value="云服务器" style="rounded=1;whiteSpace=wrap;html=1;fillColor=#f5f5f5;strokeColor=#666666;fontColor=#333333;fontSize=20;" parent="F8k-hwd1LeyVgPTJ7h4S-1" vertex="1">
                    <mxGeometry x="-20922" y="1000" width="402" height="60" as="geometry"/>
                </mxCell>
                <mxCell id="P_FGHdYgrc0bCHyAvN4C-13" value="Docker 容器引擎" style="rounded=1;whiteSpace=wrap;html=1;fillColor=#f5f5f5;strokeColor=#666666;fontColor=#333333;fontSize=20;" parent="F8k-hwd1LeyVgPTJ7h4S-1" vertex="1">
                    <mxGeometry x="-20922" y="920" width="402" height="60" as="geometry"/>
                </mxCell>
                <mxCell id="P_FGHdYgrc0bCHyAvN4C-14" value="OSS" style="shape=cylinder;whiteSpace=wrap;html=1;boundedLbl=1;backgroundOutline=1;fillColor=#66B2FF;fontSize=17;fontColor=#000000;" parent="F8k-hwd1LeyVgPTJ7h4S-1" vertex="1">
                    <mxGeometry x="-20620" y="740" width="100" height="90" as="geometry"/>
                </mxCell>
                <mxCell id="P_FGHdYgrc0bCHyAvN4C-15" value="" style="group;fontSize=20;fontColor=#000000;" parent="F8k-hwd1LeyVgPTJ7h4S-1" vertex="1" connectable="0">
                    <mxGeometry x="-20432" y="415" width="238" height="469" as="geometry"/>
                </mxCell>
                <mxCell id="P_FGHdYgrc0bCHyAvN4C-16" value="" style="rounded=0;whiteSpace=wrap;html=1;dashed=1;fontSize=20;" parent="P_FGHdYgrc0bCHyAvN4C-15" vertex="1">
                    <mxGeometry width="238" height="469" as="geometry"/>
                </mxCell>
                <mxCell id="P_FGHdYgrc0bCHyAvN4C-17" value="Git 仓库&amp;nbsp;" style="rounded=1;whiteSpace=wrap;html=1;fillColor=#fff2cc;strokeColor=#d6b656;fontSize=20;fontColor=#000000;" parent="P_FGHdYgrc0bCHyAvN4C-15" vertex="1">
                    <mxGeometry x="39.666666666666664" y="85.27272727272728" width="158.66666666666666" height="63.95454545454545" as="geometry"/>
                </mxCell>
                <mxCell id="P_FGHdYgrc0bCHyAvN4C-18" value="镜像仓库" style="rounded=1;whiteSpace=wrap;html=1;fillColor=#fff2cc;strokeColor=#d6b656;fontSize=20;fontColor=#000000;" parent="P_FGHdYgrc0bCHyAvN4C-15" vertex="1">
                    <mxGeometry x="39.666666666666664" y="172.67727272727274" width="158.66666666666666" height="63.95454545454545" as="geometry"/>
                </mxCell>
                <mxCell id="P_FGHdYgrc0bCHyAvN4C-19" value="Jenkins&lt;br style=&quot;font-size: 20px;&quot;&gt;CI/CD" style="rounded=1;whiteSpace=wrap;html=1;fillColor=#fff2cc;strokeColor=#d6b656;fontSize=20;fontColor=#000000;" parent="P_FGHdYgrc0bCHyAvN4C-15" vertex="1">
                    <mxGeometry x="39.666666666666664" y="266.47727272727275" width="158.66666666666666" height="63.95454545454545" as="geometry"/>
                </mxCell>
                <mxCell id="P_FGHdYgrc0bCHyAvN4C-20" value="监控告警" style="rounded=1;whiteSpace=wrap;html=1;fillColor=#fff2cc;strokeColor=#d6b656;fontSize=20;fontColor=#000000;" parent="P_FGHdYgrc0bCHyAvN4C-15" vertex="1">
                    <mxGeometry x="39.666666666666664" y="362.40909090909093" width="158.66666666666666" height="63.95454545454545" as="geometry"/>
                </mxCell>
                <mxCell id="P_FGHdYgrc0bCHyAvN4C-21" value="公共组件" style="text;html=1;strokeColor=none;fillColor=none;align=center;verticalAlign=middle;whiteSpace=wrap;rounded=0;dashed=1;fontSize=20;fontStyle=1" parent="P_FGHdYgrc0bCHyAvN4C-15" vertex="1">
                    <mxGeometry x="52.888888888888886" y="11.725" width="132.22222222222223" height="21.31818181818182" as="geometry"/>
                </mxCell>
                <mxCell id="QI0gJGDsC3x-LqzMm6-_-6" value="访问层" style="text;html=1;align=center;verticalAlign=middle;resizable=0;points=[];autosize=1;fontSize=17;fontStyle=1" parent="F8k-hwd1LeyVgPTJ7h4S-1" vertex="1">
                    <mxGeometry x="-21107.989999999998" y="203.5" width="70" height="30" as="geometry"/>
                </mxCell>
                <mxCell id="QI0gJGDsC3x-LqzMm6-_-7" value="微信小程序端" style="rounded=1;whiteSpace=wrap;html=1;fillColor=#ffe6cc;strokeColor=#d79b00;fontSize=20;fontColor=#000000;" parent="F8k-hwd1LeyVgPTJ7h4S-1" vertex="1">
                    <mxGeometry x="-20922" y="187" width="182" height="63" as="geometry"/>
                </mxCell>
                <mxCell id="QI0gJGDsC3x-LqzMm6-_-8" value="Web 桌面端" style="rounded=1;whiteSpace=wrap;html=1;fillColor=#ffe6cc;strokeColor=#d79b00;fontSize=20;fontColor=#000000;" parent="F8k-hwd1LeyVgPTJ7h4S-1" vertex="1">
                    <mxGeometry x="-20702" y="187" width="182" height="63" as="geometry"/>
                </mxCell>
            </root>
        </mxGraphModel>
    </diagram>
</mxfile>
